<svg xmlns="http://www.w3.org/2000/svg" xmlns:xlink="http://www.w3.org/1999/xlink" width="23" height="24" viewBox="0 0 23 24">
    <defs>
        <path id="a" d="M3.579 3.816c-2.21 2.21-3.316 4.91-3.316 8.1 0 3.095 1.105 5.748 3.316 7.957 2.21 2.243 4.911 3.364 8.1 3.364 3.095 0 5.747-1.12 7.958-3.364C21.88 17.663 23 15.011 23 11.915c0-3.19-1.12-5.889-3.363-8.1C17.426 1.606 14.774.5 11.68.5 8.49.5 5.79 1.605 3.579 3.816z"/>
        <mask id="b" width="22.737" height="22.737" x="0" y="0" fill="#fff">
            <use xlink:href="#a"/>
        </mask>
    </defs>
    <g fill="none" fill-rule="evenodd" stroke="#DD5656">
        <path stroke-linecap="round" stroke-linejoin="round" stroke-width="1.5" d="M11.75 16.379v.379"/>
        <use stroke-width="3" mask="url(#b)" xlink:href="#a"/>
        <path stroke-linecap="round" stroke-linejoin="round" stroke-width="1.5" d="M11.75 6.578v7.157"/>
    </g>
</svg>
