<svg xmlns="http://www.w3.org/2000/svg" width="50" height="44" viewBox="0 0 50 44">
    <g fill="none" fill-rule="evenodd">
        <path fill="#FFF" d="M48.712 20.63l.64-2.04-2.118.068c-.179 0-1.479-.037-2.74-.948.094.008.188.022.285.022 1.298 0 2.555-.778 3.058-1.892l.91-2.01c-1.142.015-2.186-.129-2.186-.129-.009-.001-.832-.107-1.784-1.074-.682-.694-1.526-1.061-2.441-1.061-.401 0-.759.072-1.067.169.048-.163.093-.328.12-.499.291-1.882-.925-3.316-.925-3.315L38.87 5.958l-.988 2.306c-.004.007-.254.548-.698.811-.135-.678-.466-1.44-1.172-2.168-1.333-1.373-2.954-1.578-3.803-1.578a4.81 4.81 0 0 0-.742.054l-1.921.376c.11-.427.347-1.172.778-1.842l1.061-1.644-2.669.302-.85-1.797-1.646.845L24.698.126 23.18 1.623 21.53.778l-.848 1.797-2.668-.303 1.061 1.646c.433.669.669 1.412.778 1.838l-1.834-.36-.063-.01a4.885 4.885 0 0 0-.766-.057c-.848 0-2.47.205-3.798 1.577-.708.728-1.04 1.49-1.175 2.17-.443-.262-.69-.794-.691-.794l-.989-2.32L8.92 7.937c-.198.255-1.173 1.604-.908 3.301.028.17.072.334.12.497a3.488 3.488 0 0 0-1.065-.17c-.916 0-1.76.368-2.444 1.062-.948.963-1.767 1.072-1.76 1.072 0 0-.866.155-2.205.13l.906 2.011c.504 1.114 1.762 1.892 3.058 1.892.098 0 .191-.014.287-.022-1.26.91-2.56.948-2.717.949L.036 18.59l.654 2.04c.33 1.05 1.427 2.79 3.53 2.978-.229.953-.736 2.024-1.85 2.484l-1.606.658.876 1.518c.494.82 1.655 1.777 3.307 1.777.358 0 .703-.037 1.035-.107.085.374.191.749.317 1.12.491 1.458.067 2.475.063 2.486l-.793 1.653 1.77.465c.023.006.557.153 1.227.153a3.756 3.756 0 0 0 1.46-.284c.229.409.507.782.832 1.116 1.134 1.16 2.742 1.746 4.778 1.746h.006l1.454-.019-3.003 1.243 2.28 1.097c.83.402 1.81.877 2.811 1.24l-.285.775.787.357c.07.032 1.581.704 4.093.848 0 0 .606.028.94.028.334 0 .933-.03.933-.03 2.496-.147 3.996-.814 4.066-.846l.787-.357-.287-.776c1.029-.375 2.048-.869 2.842-1.255l2.237-1.082-2.993-1.242 1.46.02c2.039 0 3.647-.589 4.78-1.748a5.32 5.32 0 0 0 .83-1.115 3.788 3.788 0 0 0 1.461.284c.659 0 1.2-.145 1.214-.15l1.778-.468-.775-1.622c-.018-.042-.442-1.059.05-2.517.125-.372.23-.747.316-1.12.334.07.682.107 1.042.107a3.865 3.865 0 0 0 3.31-1.794l.868-1.502-1.606-.657c-1.117-.46-1.623-1.53-1.85-2.483 2.076-.18 3.19-1.922 3.53-2.98M19.992 6.461l-.021.005.017-.024.004.019"/>
        <path fill="#FFF" d="M24.699 6.37c-1.701.002-2.977.556-3.254 1.209L24.7 8.858l3.254-1.28c-.275-.652-1.55-1.206-3.254-1.208M24.733 40.2h-.066c-1.03.006-2.45-.204-3.133-.403l-.823 2.215c.542.193 2.38.561 3.991.561 1.608 0 3.445-.368 3.987-.56l-.821-2.216c-.686.199-2.105.41-3.135.402M30.959 37.995c-.612.344-1.98.863-2.775 1.104l.668 1.83c1.23-.335 2.246-.726 3.084-1.145l-1.386-.458.409-1.33M18.442 37.995l.41 1.331-1.387.458c.836.42 1.857.81 3.083 1.144l.668-1.83c-.793-.24-2.163-.759-2.774-1.103M24.699 4.251c1.283 0 2.539.306 3.506.842a8.64 8.64 0 0 1 .38-1.028l-.366.043-.383.04-.163-.347-.49-1.028-.89.462-.348.176-.277-.273-.97-.954-.966.954-.277.273-.347-.176-.896-.462-.483 1.028-.165.348-.383-.04-.365-.044c.168.375.29.733.38 1.028.97-.536 2.226-.842 3.503-.842M44.275 16.134c.166.058.335.083.503.083.726 0 1.427-.467 1.668-1 0 0-1.33-.08-2.76-1.526-.455-.468-.937-.608-1.35-.608-.643 0-1.125.337-1.125.337 1.728.916 2.08 2.384 3.064 2.714M4.621 16.217c.168 0 .337-.025.5-.083.987-.33 1.342-1.798 3.067-2.713 0 0-.483-.338-1.122-.338-.415 0-.896.14-1.354.609-1.428 1.444-2.757 1.525-2.757 1.525.239.533.942 1 1.666 1"/>
        <path fill="#FFF" d="M44.742 22.102c.031.002.056.002.087.002 1.81 0 2.423-1.93 2.423-1.93h-.036c-.331 0-3.022-.077-4.925-2.484-1.252-1.582-2.279-2.974-4.305-3.52l-.2-.036-.043-.202c-.056-.307.157-.597.638-.908 2.797-1.823.897-4.148.897-4.148s-.799 1.859-2.586 1.859l-.132-.002c-.202-.011-.399-.019-.596-.06l-.33-.063s.51-1.38-.72-2.646c-.926-.956-2.053-1.12-2.704-1.12-.327 0-.535.043-.535.043.617.803 1.064 2.138.351 2.96-.617.708-2.123.742-2.123 1.795 0 .448.42.968 1.172 1.436 2.263 1.419 4.51 3.301 5.445 5.824 1.167 3.146-.148 5.234-2.025 6.432 0 0 .59.54 1.442.608.174.018.344.025.502.025 1.802 0 2.735-.841 2.735-.841s-.154 1.162-1.092 2.241c-.866.997-2 1.584-3.734 1.608 0 0-.055.8.712 1.493.492.437 1.625.58 1.625.58s-2.123.428-2.357 3.549c-.127 1.69-.562 2.278-.562 2.278h.038c4.927 0 4.801-4.205 4.801-4.205s.342 1.245 1.717 1.57c.166.043.344.06.512.06.443 0 .828-.104.828-.104-.001 0-.72-1.51-.007-3.624.593-1.754.497-3.054.497-3.054s.663 1 2.31 1.009h.016c1.37 0 1.968-1.035 1.968-1.035-3.285-1.356-2.961-5.736-2.961-5.736s.427.317 1.257.346m-.988 4.577c-1.337-.656-2.18-2.397-2.385-3.024-.222 3.452-1.914 5.847-3.894 8.153-1.027 1.196-1.385 2.358-1.385 2.358s.198-1.317 1.086-2.389c1.847-2.207 3.602-4.956 3.732-8.135.09-2.218-.483-4.017-1.377-5.5.5 1.545.429 3.435-1.27 5.2 0 0 3.383-4.033-1.346-8.168-1.892-1.574-3.963-2.545-5.029-3.234 3.852 1.251 5.732-.126 5.732-.126-1.23 1.061-2.822 1.043-3.81.89.269.13.547.265.847.426 3.247 1.755 6.166 4.644 6.663 8.643v-.03c.755 3.928 2.436 4.936 2.436 4.936M12.715 31.047s1.134-.142 1.626-.58c.767-.692.712-1.492.712-1.492-1.734-.024-2.868-.611-3.74-1.607-.93-1.08-1.086-2.242-1.086-2.242s.932.841 2.732.841c.162 0 .33-.007.504-.025.854-.068 1.445-.608 1.445-.608-1.88-1.197-3.195-3.286-2.029-6.433.935-2.52 3.181-4.404 5.445-5.823.752-.468 1.171-.988 1.171-1.435 0-1.054-1.504-1.088-2.12-1.796-.713-.823-.266-2.157.35-2.96 0 0-.205-.042-.535-.042-.65 0-1.777.163-2.703 1.119-1.233 1.265-.721 2.645-.721 2.645l-.33.064c-.196.041-.395.049-.596.06l-.131.002c-1.792 0-2.586-1.859-2.586-1.859s-1.899 2.325.898 4.147c.48.312.692.602.637.91l-.044.201-.204.035c-2.023.548-3.05 1.94-4.303 3.521-1.902 2.407-4.59 2.485-4.924 2.485h-.037s.614 1.93 2.425 1.93c.028 0 .056 0 .086-.003.832-.03 1.26-.347 1.26-.347s.321 4.38-2.962 5.737c0 0 .598 1.035 1.968 1.035h.016c1.647-.01 2.31-1.009 2.31-1.009s-.096 1.3.494 3.054c.715 2.114-.002 3.625-.002 3.625s.383.102.825.102c.171 0 .347-.016.511-.06 1.374-.324 1.718-1.57 1.718-1.57s-.127 4.206 4.8 4.206h.037s-.431-.587-.559-2.28c-.233-3.119-2.358-3.548-2.358-3.548m-.792.761c-1.978-2.306-3.67-4.701-3.894-8.153-.204.627-1.047 2.368-2.382 3.023 0 0 1.679-1.007 2.434-4.936v.031c.5-3.999 3.416-6.888 6.665-8.643.297-.16.578-.296.845-.426-.988.153-2.58.171-3.809-.89 0 0 1.881 1.376 5.73.126-1.065.689-3.135 1.66-5.026 3.234-4.73 4.135-1.347 8.168-1.347 8.168-1.701-1.765-1.77-3.655-1.27-5.2-.895 1.483-1.468 3.282-1.376 5.5.13 3.179 1.884 5.928 3.728 8.136.891 1.07 1.092 2.388 1.092 2.388s-.363-1.162-1.39-2.358M21.056 15.67c.081.085.16.18.237.273.019.023.035.042.054.068.07.093.141.192.21.294.016.02.03.044.047.068.082.124.16.252.238.384.71 1.221 1.847 1.95 2.857 1.953 1.01-.002 2.146-.732 2.859-1.953a7.473 7.473 0 0 1 .277-.444c.07-.105.144-.208.22-.306l.048-.06c.079-.098.16-.193.244-.28.014-.015.026-.028.04-.04.362-.368.793-.65 1.358-.805l-.252-.146h-.014l-1-.578-1.028-.586L24.706 15l-.007-.005-.005.005-2.747-1.487-1.026.586-1.003.578h-.011l-.254.146c.566.155.996.433 1.36.803.015.014.026.03.043.044m2.531-.119h2.323v.794c-.273-.333-.805-.266-.805-.266v1.144s.02.562.218.806h-1.15c.202-.244.22-.806.22-.806v-1.144s-.53-.067-.806.266v-.794"/>
        <path fill="#FFF" d="M24.461 14.012V9.368l-2.97-1.002.784 4.5 2.186 1.146zm-.637-3.502v.745l-.144-.065c-.007-.005-.218-.053-.586-.343-.61-.47-.62-.903-.62-.903l1.35.566zM27.125 12.865l.78-4.5-2.967 1.003v4.644l2.187-1.147zm-1.549-2.355l1.35-.566s-.01.433-.621.903c-.367.29-.579.338-.586.343l-.143.065v-.745zM20.262 24.776c.288.105.64.127.819.127.007-.022.017-.05.025-.083.016-.053.031-.106.042-.163.05-.258.068-.548.073-.736a1.037 1.037 0 0 1-.39-.41c-.11-.23-.268-.338-.498-.338-.299 0-.619.178-.757.262-.109.642.366 1.224.686 1.341M26.83 22.313c-.551.598-1.631 1.636-1.683 1.688l-.065.066-3.412-.054a3.456 3.456 0 0 1-.11.833l-.028.107 4.058.726c.422-.293 1.584-1.138 2.036-1.469-.328-.476-.36-1.043-.286-1.44a2.024 2.024 0 0 1-.51-.457"/>
        <path fill="#FFF" d="M27.292 18.23c-.785.775-1.54 1.063-2.213 1.13a3.7 3.7 0 0 1-.37.02h-.018a3.679 3.679 0 0 1-.736-.078c-.045.175-.1.54.06.886.143.313.432.546.855.702l.142.055.002.152c0 .045.034 1.034 1.115 1.308.176-.181.337-.345.456-.482-.221-.518-.106-1.046.216-1.305-.015.055-.155 1.351.889 1.833l.172.081-.052.183c-.016.054-.365 1.31.9 1.776l.224.084-.1.216c-.022.049-.517 1.186.65 1.834h2.533v-2.001c-.9-.11-1.282-.83-1.38-1.34-.42-.072-.742-.252-.965-.544-.53-.697-.075-1.335-.069-1.37 0 .007 0 .685.422 1.105.209.201.455.358.828.393l.185.016.016.188c.003.04.104.959.963 1.103l-.003-4.088c0-.633.186-1.27.41-1.858h-5.132M20.477 20.103l-.069 2.602.298.045.727-2.497-.369-.768-.587.618M28.491 32.042c.023 0 .048.003.072.009.453.128.567 1.751 1.36 1.896.078.016.15.02.213.02.23 0 .366-.096.513-.27 0 0-.399-.624-.697-1.046-.397-.551-.705-1.217-1.443-1.217-.018 0-.04 0-.057.003-.243.012-.394.13-.394.13a1.532 1.532 0 0 0-.829-.25c-.462 0-.821.21-1.002.21h-.006l-1.65-.161c-.257-.025-.461-.284-.535-.384l-.028-.044c0-.045 0-.09-.003-.131-.056-1.343-1.1-1.916-1.47-1.925 0 0 .043-.256-.058-.353l-.364.44-1.192-.596.85.99-.72.805c-.09.092-.08.216-.041.268l.31.274.396-.239c.02-.014.056-.019.1-.019.108 0 .272.028.42.028.16 0 .3-.034.317-.184-.05.497-.514 1.362-.21 2.042l.226.512-1.457-.209-.683 1.147c-.21.382-.243.794-.04 1.02l.254.317s.358-.377.44-.626l-.117-.127c-.098-.107-.093-.202-.033-.317l.428-.706 1.72.403.092-.154c.117-.193.285-.25.469-.25.076 0 .154.009.234.021.32.063.845.147 1.371.147.577 0 1.15-.102 1.454-.443.624.92 1.887 1.066 1.787 1.533l-.332 1.576c.22-.01.432-.024.634-.052l.315-1.639c.035-.179.069-.418.069-.418-.122-.124-.417-.383-.583-.7-.223-.426-.103-.648-.31-1.202 0 0 .064-.13.21-.13m-6.44-2.303a.148.148 0 0 1 .018-.296.15.15 0 0 1 .143.158.151.151 0 0 1-.16.138"/>
        <path fill="#FFF" d="M19.702 33.533s.571-.234.621-.4l-.076-.19c-.054-.123-.046-.257.058-.33l.616-.423 1.028.196s-.186-.232-.168-.541l-.982-.207-.925.56a.891.891 0 0 0-.295 1.066l.123.269M26.978 36.203c.184-.008.388-.01.61-.01 0 0 .53-1.542.56-1.59-.297-.131-.913-.456-1.15-.605.157.234.538.5.463.707l-.483 1.498"/>
        <path fill="#FFE60D" d="M32.017 27.066H17.384v5.478c0 2.24 1.629 3.642 4.033 3.642 2.008 0 2.538.078 3.284.816.515-.51.94-.702 1.815-.773l.021-.085.462-1.419c-.026-.032-.78-.884-.78-.884-.3.099-.551.115-.972.115-.433 0-.922-.05-1.452-.15a.67.67 0 0 0-.153-.016c-.065 0-.07.005-.087.037l-.26.426-.315-.073-1.405-.329-.192.316.029.034.17.188-.076.244c-.103.32-.438.692-.54.795l-.35.375-.32-.402-.241-.3c-.253-.283-.311-.712-.169-1.164a.03.03 0 0 1-.014.006l-.396.163-.178-.385-.125-.273a1.328 1.328 0 0 1 .444-1.608l1.13-.635 1.076.21c.026-.103.065-.47.095-.564-.02-.002-.04-.007-.061-.007l-.62.23-.598-.41s-.234-.224-.022-.448l.579-.874-1.467-1.832 2.254.922.15-.185.305-.363.345.328a.657.657 0 0 1 .181.324c.62.24 1.735.951 1.833 2.106l-.35.138v.009c.082.094.148.132.168.136l1.609.158c.041-.008.092-.025.149-.042.2-.068.5-.166.856-.166.29 0 .57.066.84.191.099-.037.22-.064.363-.074l.077-.002c.86 0 1.29.64 1.633 1.152.058.089.115.172.174.255.3.423.694 1.04.71 1.067l.177.276-.217.252c-.167.192-.419.418-.85.418a1.518 1.518 0 0 1-.548-.107c-.011.084-.03.185-.045.272l-.282 1.465c1.688-.413 2.759-1.681 2.759-3.496l-.003-5.478M17.384 26.625h11.381c-.568-.585-.56-1.325-.415-1.805a1.93 1.93 0 0 1-.425-.278c-.444.326-1.802 1.31-2.157 1.557l-.076.05-4.467-.804h-.09c-.107 0-.264-.004-.436-.024a.434.434 0 0 1-.778.155.427.427 0 0 1-.078-.326l.017-.097c-.46-.322-.886-1.044-.698-1.804l.019-.08.065-.047c.01-.007.086-.06.202-.125l-.325-.05a.224.224 0 0 1-.184-.252.222.222 0 0 1 .255-.185l.773.122.07-2.71 1.15-1.21.72 1.504-.76 2.607.685.106c.12.02.202.132.184.255a.219.219 0 0 1-.22.182h-.034l-.556-.09c.008.016.018.027.025.044.059.122.19.208.268.246l3.404.054c.145-.14.502-.488.87-.856a1.828 1.828 0 0 1-1.194-1.513c-.468-.198-.792-.496-.97-.882-.22-.48-.142-.959-.083-1.192-.454-.165-.931-.465-1.42-.948h-5.129c.22.589.407 1.225.407 1.858v6.538"/>
        <path fill="#231F1F" d="M22.07 29.442a.148.148 0 1 0-.019.296.151.151 0 0 0 .161-.138.15.15 0 0 0-.142-.158M31.997 39.378l-.843-.322.233-.867.257-.944s-1.494.806-3.599 1.412c-.597.17-1.05.248-1.05.248v.643s-1.125.194-2.262.194h-.065c-1.14 0-2.263-.194-2.263-.194v-.643s-.453-.078-1.05-.248c-2.104-.606-3.596-1.412-3.596-1.412l.252.944.238.867-.846.322-.938.349c1.075.516 2.564 1.268 3.927 1.64l-.32.874s1.728.784 4.608.791v.002h.04v-.002c2.883-.007 4.61-.79 4.61-.79l-.322-.876c1.363-.37 2.855-1.123 3.925-1.64l-.936-.348zm-14.532.407l1.387-.458-.41-1.332c.611.345 1.98.863 2.774 1.104l-.669 1.83c-1.226-.336-2.245-.726-3.082-1.144zm7.237 2.788c-1.61 0-3.449-.368-3.991-.56l.823-2.216c.682.198 2.103.408 3.134.402h.065c1.03.006 2.449-.204 3.135-.402l.821 2.215c-.541.193-2.38.561-3.987.561zm4.15-1.644l-.668-1.83c.795-.24 2.163-.76 2.775-1.104l-.408 1.332 1.385.458c-.839.418-1.854.808-3.084 1.144zM24.699 4.788c1.715 0 3.089.565 3.847 1.169 0 0 .225-1.35.994-2.541l-1.382.157-.723-1.53-1.39.713L24.7 1.432l-1.344 1.324-1.392-.712-.722 1.529-1.381-.157c.77 1.19.993 2.54.993 2.54.764-.603 2.133-1.168 3.846-1.168m-3.518-.68l.383.04.165-.347.483-1.028.896.461.347.177.277-.273.967-.954.969.954.277.273.347-.177.892-.461.49 1.028.162.348.383-.04.366-.045a8.69 8.69 0 0 0-.38 1.03c-.967-.537-2.223-.843-3.506-.843-1.277 0-2.533.306-3.503.842a8.83 8.83 0 0 0-.38-1.029l.365.045M44.829 22.695c2.219 0 2.961-2.247 2.992-2.343l.247-.792-.831.026h-.003c-.293 0-2.742-.065-4.478-2.26l-.164-.204c-1.134-1.435-2.21-2.8-4.132-3.423.055-.05.135-.112.244-.183 1.02-.667 1.614-1.479 1.764-2.42.218-1.417-.69-2.547-.731-2.593l-.618-.76-.385.9c-.026.058-.675 1.502-2.04 1.502h-.103l-.27-.016c.047-.644-.07-1.64-.979-2.577-1.093-1.125-2.432-1.294-3.132-1.294-.374 0-.622.046-.65.049l-.933.184.576.756c.451.582.86 1.656.375 2.217-.155.178-.475.322-.78.468-.628.288-1.486.69-1.486 1.71 0 .66.515 1.352 1.448 1.939 2.763 1.73 4.467 3.534 5.204 5.526 1.139 3.064-.348 4.811-1.79 5.733l-.648.413.567.519c.076.066.769.675 1.793.762.194.012.38.023.553.023a5.72 5.72 0 0 0 1.67-.241c-.125.218-.28.44-.473.663-.824.951-1.84 1.385-3.298 1.408l-.543.009-.04.541c-.006.109-.047 1.113.907 1.966.146.133.323.242.509.33-.648.58-1.306 1.59-1.433 3.321-.109 1.445-.454 1.979-.459 1.984l-.598.911 1.083.015c1.79 0 3.16-.491 4.11-1.465a4.624 4.624 0 0 0 1.07-1.803 2.917 2.917 0 0 0 1.89.69c.506 0 .929-.107.976-.118l.691-.182-.305-.642c-.022-.052-.6-1.341.022-3.18.266-.796.404-1.508.47-2.063.435.226 1.019.413 1.772.415 1.712 0 2.467-1.273 2.501-1.326l.337-.585-.625-.256c-2.04-.843-2.491-3.107-2.582-4.332.184.036.395.068.633.075l.105.003zm1.617 4.797s-.597 1.035-1.968 1.035h-.017c-1.645-.01-2.309-1.009-2.309-1.009s.095 1.3-.497 3.054c-.714 2.114.006 3.624.006 3.624s-.384.104-.827.104c-.169 0-.346-.017-.512-.06-1.374-.325-1.717-1.57-1.717-1.57s.127 4.205-4.8 4.205h-.04s.435-.587.563-2.278c.234-3.121 2.357-3.55 2.357-3.55s-1.133-.142-1.624-.58c-.768-.692-.714-1.492-.714-1.492 1.734-.024 2.87-.611 3.735-1.608.938-1.079 1.091-2.241 1.091-2.241s-.932.841-2.734.841c-.158 0-.327-.007-.501-.025a2.65 2.65 0 0 1-1.443-.608c1.877-1.197 3.193-3.286 2.026-6.433-.936-2.52-3.183-4.404-5.446-5.823-.752-.468-1.172-.988-1.172-1.436 0-1.053 1.507-1.087 2.123-1.795.713-.822.266-2.157-.351-2.96 0 0 .207-.042.535-.042.652 0 1.778.163 2.704 1.119 1.23 1.265.72 2.645.72 2.645l.33.064c.197.041.393.049.596.06l.133.002c1.787 0 2.586-1.859 2.586-1.859s1.9 2.325-.898 4.148c-.481.31-.693.6-.638.908l.044.202.2.035c2.026.547 3.052 1.94 4.304 3.521 1.903 2.407 4.593 2.485 4.925 2.485h.037s-.615 1.93-2.424 1.93c-.03 0-.056 0-.086-.003-.831-.03-1.258-.347-1.258-.347s-.324 4.38 2.96 5.737z"/>
        <path fill="#231F1F" d="M40.93 13.942c.827.44 1.31 1.028 1.732 1.55.416.508.81.998 1.427 1.201.22.075.452.111.69.111.924 0 1.855-.564 2.207-1.345l.355-.783-.858-.05c-.04-.001-1.145-.102-2.373-1.35-.505-.513-1.116-.782-1.774-.782-.805 0-1.401.4-1.467.44l-.789.554.85.454zm1.406-.86c.413 0 .894.141 1.35.61 1.43 1.444 2.76 1.525 2.76 1.525-.241.533-.942 1-1.668 1-.168 0-.336-.025-.503-.083-.984-.33-1.336-1.798-3.064-2.713 0 0 .482-.338 1.125-.338zM41.318 21.743v.03c-.497-3.999-3.416-6.887-6.663-8.643-.3-.16-.578-.296-.847-.426.989.153 2.581.17 3.81-.89 0 0-1.88 1.377-5.732.126 1.065.689 3.137 1.66 5.03 3.234 4.727 4.135 1.345 8.168 1.345 8.168 1.7-1.765 1.77-3.655 1.27-5.2.894 1.483 1.466 3.281 1.377 5.5-.13 3.179-1.885 5.927-3.732 8.135-.888 1.072-1.086 2.389-1.086 2.389s.359-1.162 1.386-2.358c1.979-2.306 3.671-4.701 3.893-8.153.204.627 1.048 2.368 2.385 3.024 0 0-1.68-1.008-2.436-4.936M16.12 36.538c-.002-.005-.346-.54-.456-1.984-.13-1.73-.787-2.741-1.436-3.321.188-.088.362-.197.508-.33.954-.853.913-1.857.907-1.966l-.037-.542-.546-.008c-1.455-.023-2.472-.457-3.296-1.408a4.437 4.437 0 0 1-.472-.663c.453.138 1.01.24 1.667.24.177 0 .36-.01.554-.022 1.024-.087 1.718-.695 1.795-.762l.567-.519-.648-.413c-1.448-.922-2.928-2.67-1.79-5.733.736-1.992 2.438-3.797 5.205-5.526.933-.587 1.444-1.278 1.444-1.939 0-1.02-.856-1.422-1.484-1.71-.306-.146-.625-.29-.78-.468-.486-.561-.077-1.635.375-2.217l.579-.756-.938-.184c-.027-.003-.273-.049-.648-.049-.701 0-2.037.169-3.128 1.294-.91.936-1.03 1.933-.983 2.577-.088.007-.177.01-.27.016h-.1c-1.37 0-2.017-1.444-2.042-1.501l-.384-.902-.624.76c-.035.047-.946 1.177-.725 2.594.148.941.742 1.753 1.763 2.42.11.071.188.133.244.183-1.926.622-3 1.988-4.134 3.423l-.164.203c-1.733 2.196-4.187 2.26-4.48 2.26l-.837-.025.255.792c.03.096.769 2.343 2.99 2.343l.107-.003c.235-.007.445-.04.633-.075-.093 1.225-.545 3.49-2.586 4.332l-.623.256.337.585c.033.053.79 1.326 2.505 1.326a3.82 3.82 0 0 0 1.768-.414c.067.554.203 1.266.47 2.062.622 1.839.044 3.128.022 3.18l-.307.642.693.182c.046.011.472.118.976.118a2.907 2.907 0 0 0 1.89-.69c.188.576.51 1.227 1.07 1.803.952.974 2.32 1.465 4.11 1.465l1.084-.015-.6-.91zm-.524.337c-4.928 0-4.801-4.205-4.801-4.205s-.344 1.245-1.718 1.57c-.164.043-.34.06-.511.06a3.54 3.54 0 0 1-.825-.104s.717-1.51.002-3.624c-.59-1.754-.494-3.054-.494-3.054s-.663 1-2.31 1.009h-.016a2.317 2.317 0 0 1-1.968-1.035c3.283-1.357 2.961-5.737 2.961-5.737s-.427.318-1.26.347c-.03.002-.057.002-.085.002-1.811 0-2.425-1.93-2.425-1.93h.037c.334 0 3.022-.077 4.924-2.484 1.253-1.582 2.28-2.973 4.303-3.52l.204-.036.044-.202c.055-.307-.157-.597-.637-.909-2.797-1.822-.898-4.147-.898-4.147s.794 1.859 2.586 1.859l.13-.002c.201-.011.4-.019.597-.06l.33-.064s-.512-1.38.721-2.645c.926-.956 2.052-1.119 2.703-1.119.33 0 .535.042.535.042-.616.803-1.063 2.137-.35 2.96.616.708 2.12.742 2.12 1.795 0 .448-.419.968-1.171 1.436-2.264 1.419-4.51 3.302-5.445 5.823-1.166 3.147.15 5.236 2.03 6.433 0 0-.592.54-1.446.608a5.137 5.137 0 0 1-.504.025c-1.8 0-2.732-.841-2.732-.841s.155 1.162 1.087 2.242c.87.996 2.005 1.583 3.739 1.607 0 0 .055.8-.712 1.493-.492.437-1.626.58-1.626.58s2.125.428 2.358 3.548c.128 1.692.559 2.28.559 2.28h-.036z"/>
        <path fill="#231F1F" d="M4.621 16.803c.238 0 .47-.035.69-.11.62-.204 1.012-.692 1.428-1.202.425-.521.902-1.11 1.73-1.549l.852-.454-.79-.553c-.067-.042-.66-.44-1.465-.44-.66 0-1.271.267-1.776.78-1.23 1.249-2.331 1.35-2.37 1.351l-.858.05.352.783c.354.78 1.283 1.344 2.207 1.344m1.091-3.111c.458-.469.94-.61 1.354-.61.64 0 1.123.339 1.123.339-1.726.915-2.081 2.383-3.068 2.714a1.495 1.495 0 0 1-.5.082c-.724 0-1.426-.467-1.666-1 0 0 1.329-.08 2.757-1.525M8.494 23.642c-.093-2.218.48-4.017 1.375-5.5-.5 1.545-.431 3.435 1.27 5.2 0 0-3.383-4.033 1.347-8.168 1.891-1.574 3.961-2.545 5.027-3.234-3.85 1.251-5.73-.126-5.73-.126 1.228 1.061 2.82 1.043 3.808.89-.267.13-.548.265-.846.426-3.248 1.755-6.165 4.644-6.665 8.643v-.03c-.754 3.928-2.433 4.936-2.433 4.936 1.336-.656 2.177-2.397 2.382-3.024.223 3.452 1.916 5.847 3.895 8.153 1.027 1.196 1.388 2.358 1.388 2.358s-.2-1.317-1.092-2.389c-1.843-2.207-3.597-4.956-3.726-8.135M23.587 15.55v.794c.275-.333.805-.266.805-.266v1.144s-.017.562-.219.806h1.15c-.198-.244-.218-.806-.218-.806v-1.144s.532-.067.805.266v-.794h-2.323M23.093 10.847c.369.29.58.338.587.343l.144.065v-.746l-1.35-.564s.01.432.62.902M26.305 10.847c.61-.47.622-.902.622-.902l-1.351.564v.746l.143-.065c.007-.005.22-.053.586-.343"/>
        <path fill="#231F1F" d="M28.738 7.805c0-1.133-1.917-2.153-4.033-2.153h-.012c-2.115 0-4.031 1.02-4.031 2.153l.041.279.845 4.826-.848.49-2.195 1.276h.007s-.494.252-.722.408c-.837.577-1.014 1.42-.528 1.769.119-.688.665-1.406 1.687-1.406.737 0 1.298.378 1.751.945.116.143.227.296.33.46.128.208.255.39.382.566h-5.655c.416.831.81 1.712.81 2.669v12.456c0 3.016 2.33 4.454 4.85 4.454 1.948 0 2.21-.088 3.285.978 1.07-1.066 1.332-.978 3.282-.978 2.52 0 4.848-1.438 4.848-4.454V20.087c0-.957.394-1.838.812-2.67h-5.657c.126-.175.253-.357.38-.564.105-.165.215-.318.33-.46.456-.57 1.017-.946 1.753-.946 1.021 0 1.566.718 1.688 1.406.485-.348.31-1.192-.53-1.77-.226-.155-.72-.407-.72-.407h.007L28.697 13.4l-.846-.49.846-4.826.04-.28zm-7.247.56l2.97 1.003v4.644l-2.186-1.146-.784-4.5zm.616 9.864c.488.483.965.783 1.419.948-.059.233-.136.713.082 1.192.179.386.503.684.971.882.051.478.355 1.196 1.194 1.512-.368.37-.726.717-.87.858l-3.404-.055a.608.608 0 0 1-.268-.247c-.006-.017-.018-.026-.025-.043l.556.09a.298.298 0 0 0 .035.001.218.218 0 0 0 .219-.183.223.223 0 0 0-.184-.255l-.683-.107.757-2.606-.718-1.504-1.15 1.21-.07 2.71-.774-.122a.221.221 0 1 0-.07.438l.324.05a2.682 2.682 0 0 0-.202.124l-.065.046-.019.08c-.187.762.238 1.483.698 1.806l-.017.096c-.019.117.008.23.079.326a.426.426 0 0 0 .356.183c.2 0 .373-.137.422-.338.171.02.327.025.435.025h.091l4.466.803.076-.05c.355-.248 1.713-1.231 2.157-1.558.123.105.26.2.424.279-.144.48-.152 1.22.417 1.804H17.384v-6.537c0-.633-.186-1.27-.407-1.858h5.13zm5.518 5.98c-.45.332-1.613 1.177-2.035 1.47l-4.058-.726.028-.108a3.48 3.48 0 0 0 .11-.832l3.412.054.065-.066c.052-.051 1.132-1.09 1.683-1.688.132.164.295.32.51.456-.074.398-.042.964.285 1.44zm-6.795-.698c.097.2.27.334.39.41a4.749 4.749 0 0 1-.071.736c-.012.057-.027.11-.043.163-.008.033-.018.06-.025.083-.18 0-.531-.022-.82-.127-.319-.117-.794-.699-.684-1.341.137-.084.457-.262.757-.262.229 0 .387.107.496.338zm-.422-.806l.07-2.602.586-.618.368.768-.727 2.497-.297-.045zm7.18 13.487c-.222 0-.426.003-.61.01l.483-1.497c.075-.206-.306-.473-.464-.707.238.15.854.475 1.15.605-.029.048-.559 1.589-.559 1.589zm1.517-1.7l-.315 1.638a6.572 6.572 0 0 1-.634.052l.332-1.575c.1-.468-1.163-.614-1.787-1.534-.304.34-.877.443-1.454.443a7.5 7.5 0 0 1-1.371-.146 1.477 1.477 0 0 0-.234-.022c-.184 0-.352.057-.47.25l-.09.155-1.721-.404-.428.706c-.06.114-.065.21.033.318l.116.126c-.08.249-.438.626-.438.626l-.256-.317c-.202-.226-.17-.639.041-1.02l.683-1.147 1.458.21-.226-.514c-.305-.68.159-1.543.209-2.041-.017.15-.156.184-.317.184-.148 0-.312-.028-.42-.028-.044 0-.081.004-.1.02l-.395.238-.311-.274c-.038-.053-.05-.176.041-.269l.72-.805-.85-.99 1.192.596.364-.44c.1.099.057.354.057.354.371.008 1.416.583 1.471 1.925.003.04.003.086.003.13l.028.045c.074.1.278.36.536.383l1.648.163h.007c.18 0 .54-.212 1.002-.212.252 0 .531.064.83.251 0 0 .15-.118.392-.13.019-.002.04-.002.058-.002.738 0 1.046.665 1.443 1.217.298.42.697 1.045.697 1.045-.147.174-.284.27-.513.27-.063 0-.135-.004-.213-.02-.793-.145-.907-1.768-1.36-1.896a.263.263 0 0 0-.072-.01c-.146 0-.209.13-.209.13.206.553.086.776.308 1.203.167.316.462.576.584.699 0 0-.034.24-.069.419zm-8.858-1.549l.076.19c-.05.166-.62.4-.62.4l-.124-.27a.891.891 0 0 1 .295-1.064l.925-.561.982.207c-.018.31.168.542.168.542l-1.028-.197-.616.423c-.104.073-.112.206-.058.33zm9.013 3.097l.283-1.466c.015-.086.033-.187.045-.271.08.033.165.06.256.077.106.02.203.03.292.03.431 0 .683-.226.85-.418l.217-.252-.178-.276a25.955 25.955 0 0 0-.71-1.067 6.156 6.156 0 0 1-.173-.255c-.343-.511-.772-1.15-1.633-1.15h-.077a1.261 1.261 0 0 0-.363.074 1.969 1.969 0 0 0-.84-.19c-.357 0-.656.097-.856.164-.057.018-.108.035-.148.043l-1.61-.158c-.021-.004-.086-.042-.166-.137v-.007l.348-.14c-.098-1.154-1.212-1.864-1.833-2.105a.653.653 0 0 0-.18-.325l-.347-.327-.304.363-.15.185-2.254-.922 1.467 1.833-.579.873c-.212.223.022.448.022.448l.598.41.62-.23c.021 0 .04.005.06.007-.03.094-.068.461-.094.564l-1.076-.21-1.13.635a1.328 1.328 0 0 0-.444 1.608l.125.273.178.385.396-.163a.04.04 0 0 0 .014-.006c-.142.452-.084.882.169 1.163l.24.3.32.403.35-.376c.103-.102.438-.475.541-.794l.076-.244-.17-.188-.03-.033.194-.317 1.403.33.317.072.168-.276.091-.15c.018-.032.022-.037.087-.037.05 0 .1.005.153.017.53.1 1.019.15 1.452.15.42 0 .672-.017.971-.117 0 0 .755.853.78.885l-.461 1.419-.02.085c-.875.071-1.3.261-1.815.773-.747-.738-1.277-.816-3.285-.816-2.404 0-4.033-1.402-4.033-3.643v-5.477h14.632l.004 5.477c0 1.817-1.072 3.084-2.76 3.497zm3.164-17.81c-.224.587-.409 1.224-.409 1.857l.001 4.088c-.858-.144-.958-1.063-.962-1.103l-.016-.188-.185-.016a1.31 1.31 0 0 1-.828-.394c-.42-.419-.422-1.097-.42-1.103-.007.034-.465.672.066 1.368.224.293.547.474.965.545.099.51.48 1.23 1.38 1.34v2h-2.531c-1.168-.647-.673-1.784-.65-1.833l.099-.216-.224-.084c-1.264-.466-.916-1.722-.899-1.776l.05-.183-.171-.081c-1.044-.482-.903-1.778-.89-1.833-.32.26-.436.787-.215 1.305-.12.137-.28.302-.456.482a1.412 1.412 0 0 1-1.115-1.308l-.002-.152-.143-.055c-.422-.155-.711-.389-.855-.702-.16-.347-.103-.71-.06-.886.125.028.248.047.365.057.122.013.247.02.372.02h.017c.126 0 .249-.007.371-.02.674-.067 1.428-.354 2.214-1.13h5.131zm-3.945-4.132l1 .578h.014l.252.146a2.954 2.954 0 0 0-1.359.805l-.04.04a4.955 4.955 0 0 0-.244.28l-.047.06a4.956 4.956 0 0 0-.256.36 7.037 7.037 0 0 0-.241.39c-.713 1.221-1.85 1.95-2.86 1.953-1.009-.002-2.145-.732-2.856-1.953a8.108 8.108 0 0 0-.239-.384c-.016-.024-.03-.048-.045-.068-.07-.102-.14-.2-.211-.294-.019-.026-.036-.045-.054-.068a5.819 5.819 0 0 0-.237-.274c-.017-.014-.029-.03-.043-.044a2.956 2.956 0 0 0-1.36-.803l.255-.146h.01l1.003-.578 1.027-.586L24.693 15l.006-.005.008.005 2.744-1.487 1.028.586zm-1.354-1.232l-2.187 1.146V9.368l2.967-1.003-.78 4.5zm-2.426-4.008l-3.254-1.28c.277-.652 1.553-1.206 3.254-1.208 1.703.002 2.98.556 3.254 1.209l-3.254 1.279z"/>
    </g>
</svg>
