<svg xmlns="http://www.w3.org/2000/svg" width="197" height="65" viewBox="0 0 197 65">
    <g fill="none" fill-rule="evenodd">
        <path fill="#FFF" d="M71.119 30.119l.934-2.977-3.091.098c-.261 0-2.159-.054-4.001-1.383.138.012.274.032.416.032 1.895 0 3.731-1.136 4.465-2.762l1.329-2.936c-1.667.023-3.192-.187-3.192-.187-.013-.002-1.214-.157-2.604-1.569-.996-1.013-2.229-1.549-3.565-1.549a5.18 5.18 0 0 0-1.557.247c.07-.238.136-.479.175-.728.425-2.748-1.351-4.842-1.351-4.841l-2.326-2.866-1.442 3.367c-.005.01-.37.8-1.019 1.185-.197-.991-.68-2.103-1.711-3.166-1.946-2.004-4.313-2.303-5.552-2.303-.574 0-.984.062-1.083.078l-2.806.549c.162-.623.507-1.711 1.137-2.689l1.549-2.401-3.897.441-1.241-2.623-2.404 1.233L36.059.184l-2.216 2.185-2.409-1.233-1.239 2.623-3.895-.442 1.55 2.403c.632.977.976 2.062 1.136 2.684l-2.678-.525-.092-.015a7.131 7.131 0 0 0-1.118-.083c-1.238 0-3.606.299-5.546 2.302-1.034 1.063-1.518 2.176-1.715 3.167-.647-.382-1.008-1.159-1.009-1.159l-1.444-3.386-2.361 2.883c-.289.372-1.712 2.342-1.325 4.82.04.247.105.487.174.725a5.093 5.093 0 0 0-1.554-.247c-1.337 0-2.57.536-3.568 1.549-1.385 1.407-2.58 1.566-2.57 1.566 0 0-1.264.226-3.22.19l1.323 2.936c.736 1.626 2.573 2.762 4.465 2.762.143 0 .279-.02.419-.032-1.839 1.329-3.737 1.383-3.966 1.385l-3.148-.1.954 2.977c.481 1.533 2.084 4.074 5.154 4.348-.334 1.392-1.074 2.955-2.701 3.627l-2.345.961 1.279 2.217c.721 1.196 2.417 2.594 4.829 2.594a7.325 7.325 0 0 0 1.511-.157c.124.546.279 1.094.463 1.637.717 2.128.098 3.612.092 3.628l-1.158 2.414 2.584.678c.033.01.813.224 1.791.224a5.483 5.483 0 0 0 2.131-.415 7.835 7.835 0 0 0 1.215 1.63c1.656 1.692 4.004 2.549 6.977 2.549h.009l2.122-.028-4.384 1.815 3.329 1.602c1.21.586 2.643 1.28 4.104 1.811l-.416 1.131 1.148.521c.102.046 2.309 1.028 5.976 1.238 0 0 .885.04 1.373.04s1.362-.043 1.362-.043c3.644-.215 5.834-1.189 5.936-1.235l1.15-.522-.419-1.133c1.501-.547 2.989-1.268 4.148-1.832l3.267-1.579-4.37-1.814 2.131.028c2.977 0 5.325-.858 6.978-2.551a7.766 7.766 0 0 0 1.214-1.628 5.53 5.53 0 0 0 2.133.415c.961 0 1.75-.212 1.771-.218l2.596-.684-1.131-2.369c-.026-.061-.645-1.545.073-3.675.183-.543.336-1.09.462-1.635.487.103.995.156 1.521.157a5.643 5.643 0 0 0 4.833-2.619l1.266-2.193-2.345-.959c-1.63-.673-2.369-2.234-2.7-3.626 3.03-.263 4.656-2.806 5.153-4.35M29.188 9.433l-.031.007.026-.035.005.028"/>
        <path fill="#FFF" d="M36.06 9.3c-2.483.003-4.346.812-4.75 1.765l4.75 1.867 4.751-1.867c-.401-.953-2.264-1.762-4.751-1.765M36.11 58.691h-.096c-1.504.01-3.578-.297-4.575-.587l-1.201 3.234c.791.281 3.475.819 5.827.819 2.347 0 5.03-.538 5.821-.819l-1.199-3.234c-1.002.29-3.073.597-4.577.587M45.2 55.473c-.894.502-2.89 1.26-4.051 1.611l.975 2.671c1.796-.488 3.279-1.058 4.502-1.67l-2.023-.669.597-1.943M26.925 55.473l.598 1.943-2.024.669c1.221.612 2.711 1.182 4.501 1.67l.975-2.671c-1.158-.351-3.157-1.109-4.05-1.611M36.06 6.207c1.873 0 3.707.446 5.12 1.229.129-.431.31-.953.554-1.501l-.534.063-.56.059-.237-.508-.715-1.501-1.301.675-.507.257-.405-.398-1.415-1.393-1.412 1.393-.404.398-.506-.257-1.309-.675-.704 1.501-.242.508-.559-.059-.533-.063c.245.548.424 1.07.555 1.501 1.417-.783 3.25-1.229 5.114-1.229M64.641 23.556c.243.084.49.121.735.121 1.06 0 2.083-.682 2.435-1.461 0 0-1.941-.117-4.03-2.227-.664-.683-1.368-.888-1.971-.888-.938 0-1.642.492-1.642.492 2.523 1.337 3.037 3.481 4.473 3.963M6.747 23.677c.245 0 .492-.037.73-.121 1.44-.482 1.959-2.626 4.478-3.962 0 0-.705-.493-1.638-.493-.606 0-1.309.205-1.977.889-2.085 2.109-4.026 2.227-4.026 2.227.349.778 1.375 1.46 2.433 1.46"/>
        <path fill="#FFF" d="M65.324 32.269c.045.003.081.003.126.003 2.643 0 3.538-2.817 3.538-2.817h-.052c-.484 0-4.413-.114-7.191-3.627-1.828-2.31-3.327-4.342-6.285-5.141l-.292-.051-.063-.295c-.082-.449.229-.872.931-1.326 4.084-2.661 1.31-6.056 1.31-6.056s-1.166 2.714-3.775 2.714c-.062 0-.128-.003-.193-.003-.296-.016-.583-.027-.87-.088l-.481-.092s.744-2.015-1.052-3.863c-1.352-1.396-2.998-1.634-3.948-1.634-.478 0-.782.062-.782.062.902 1.173 1.554 3.121.513 4.322-.901 1.033-3.099 1.083-3.099 2.621 0 .653.612 1.413 1.711 2.096 3.304 2.071 6.584 4.82 7.949 8.503 1.704 4.593-.216 7.642-2.957 9.391 0 0 .861.788 2.106.888.254.025.502.036.733.036 2.631 0 3.993-1.228 3.993-1.228s-.225 1.697-1.594 3.272c-1.264 1.455-2.921 2.312-5.452 2.348 0 0-.08 1.168 1.04 2.179.718.639 2.372.846 2.372.846s-3.099.626-3.441 5.182c-.186 2.469-.82 3.327-.82 3.327h.055c7.193 0 7.01-6.14 7.01-6.14-.001 0 .499 1.818 2.506 2.292.243.063.502.088.748.088.646 0 1.208-.152 1.208-.152-.001 0-1.052-2.205-.009-5.291.865-2.561.725-4.458.725-4.458s.968 1.459 3.372 1.472h.024c2.001 0 2.873-1.51 2.873-1.51-4.796-1.981-4.323-8.375-4.323-8.375s.623.462 1.836.505m-1.443 6.682c-1.952-.958-3.184-3.5-3.482-4.415-.324 5.04-2.795 8.537-5.685 11.904-1.5 1.746-2.023 3.442-2.023 3.442s.29-1.922 1.586-3.487c2.696-3.223 5.259-7.237 5.449-11.877.13-3.239-.705-5.865-2.011-8.03.73 2.255.626 5.015-1.853 7.591 0 0 4.938-5.888-1.966-11.925-2.762-2.298-5.786-3.716-7.342-4.721 5.623 1.826 8.368-.185 8.368-.185-1.795 1.55-4.12 1.523-5.561 1.3.391.189.798.387 1.235.622 4.741 2.562 9.002 6.78 9.728 12.619v-.044c1.103 5.734 3.557 7.206 3.557 7.206M18.564 45.329s1.656-.207 2.374-.846c1.119-1.011 1.039-2.18 1.039-2.18-2.531-.035-4.187-.892-5.459-2.346-1.36-1.576-1.586-3.273-1.586-3.273s1.36 1.228 3.988 1.228a7.5 7.5 0 0 0 .736-.036c1.247-.1 2.11-.888 2.11-.888-2.744-1.748-4.665-4.798-2.962-9.392 1.365-3.681 4.644-6.431 7.949-8.502 1.098-.683 1.71-1.443 1.71-2.095 0-1.539-2.196-1.589-3.096-2.622-1.041-1.202-.388-3.149.511-4.322 0 0-.299-.061-.781-.061-.949 0-2.594.237-3.946 1.633-1.8 1.848-1.053 3.862-1.053 3.862l-.481.094c-.287.06-.577.071-.871.087-.067 0-.127.003-.191.003-2.616 0-3.775-2.714-3.775-2.714s-2.773 3.395 1.31 6.055c.702.455 1.011.878.93 1.327l-.064.295-.297.051c-2.954.8-4.454 2.831-6.283 5.141-2.776 3.513-6.701 3.627-7.189 3.627h-.054s.896 2.817 3.54 2.817c.042 0 .082 0 .126-.003 1.215-.043 1.839-.506 1.839-.506s.47 6.394-4.324 8.376c0 0 .873 1.51 2.873 1.51h.024c2.404-.013 3.372-1.472 3.372-1.472s-.14 1.898.722 4.458c1.043 3.087-.003 5.292-.003 5.292s.559.15 1.204.15c.25 0 .507-.024.747-.087 2.005-.474 2.507-2.292 2.507-2.292s-.184 6.14 7.01 6.14h.052s-.629-.858-.815-3.328c-.341-4.555-3.443-5.181-3.443-5.181m-1.156 1.111c-2.888-3.367-5.359-6.864-5.686-11.904-.298.915-1.528 3.457-3.477 4.414 0 0 2.451-1.471 3.553-7.206v.045c.729-5.839 4.988-10.057 9.731-12.619.434-.235.844-.433 1.234-.622-1.442.223-3.767.25-5.561-1.299 0 0 2.746 2.009 8.366.184-1.555 1.005-4.577 2.423-7.338 4.721-6.906 6.037-1.967 11.926-1.967 11.926-2.484-2.578-2.583-5.337-1.853-7.592-1.308 2.165-2.145 4.791-2.01 8.03.189 4.64 2.75 8.654 5.442 11.878 1.302 1.563 1.595 3.486 1.595 3.486s-.53-1.696-2.029-3.442M30.742 22.877c.118.126.234.263.346.4.027.033.051.061.078.099.103.136.207.281.307.429.023.029.045.065.069.099.119.181.234.368.347.561 1.038 1.783 2.697 2.848 4.171 2.851 1.475-.003 3.133-1.068 4.174-2.851a10.91 10.91 0 0 1 .405-.648c.103-.154.21-.303.322-.447.024-.032.047-.06.069-.087.115-.143.234-.282.356-.41.021-.021.039-.04.058-.057a4.313 4.313 0 0 1 1.983-1.176l-.367-.213h-.02l-1.46-.844-1.501-.855-4.008 2.171-.011-.008-.007.008-4.01-2.171-1.499.855-1.463.844h-.017l-.37.213a4.302 4.302 0 0 1 1.984 1.172c.023.021.039.045.064.065m3.695-.174h3.391v1.159c-.398-.486-1.175-.388-1.175-.388v1.67s.029.821.318 1.177h-1.678c.294-.356.32-1.177.32-1.177v-1.67s-.774-.098-1.176.388v-1.159"/>
        <path fill="#FFF" d="M35.713 20.457v-6.78l-4.336-1.463 1.144 6.569 3.192 1.674zm-.93-5.113v1.089l-.21-.096c-.01-.007-.319-.077-.856-.501-.889-.685-.906-1.318-.906-1.318l1.972.826zM39.602 18.783l1.14-6.569-4.333 1.463v6.78l3.193-1.674zm-2.261-3.439l1.972-.826s-.017.633-.908 1.318c-.536.424-.845.494-.855.501l-.209.096v-1.089zM29.582 36.173c.421.153.934.185 1.196.185.01-.032.025-.072.037-.121.023-.077.045-.154.061-.238.074-.376.1-.8.106-1.075-.177-.111-.429-.306-.569-.598-.161-.337-.391-.494-.727-.494-.436 0-.903.26-1.105.383-.159.938.535 1.787 1.001 1.958M39.172 32.577c-.805.873-2.382 2.389-2.457 2.465l-.096.096-4.981-.079a5.046 5.046 0 0 1-.161 1.216l-.04.157 5.925 1.06c.616-.429 2.312-1.662 2.972-2.145-.479-.696-.525-1.523-.417-2.104a2.955 2.955 0 0 1-.745-.666"/>
        <path fill="#FFF" d="M39.847 26.615c-1.147 1.132-2.248 1.553-3.231 1.65a5.403 5.403 0 0 1-.542.029h-.025a5.37 5.37 0 0 1-1.075-.113c-.065.256-.146.787.087 1.293.209.458.632.798 1.249 1.025l.207.081.003.222c0 .066.05 1.509 1.628 1.91.258-.265.492-.504.666-.704-.323-.756-.154-1.528.315-1.906-.021.08-.226 1.973 1.298 2.677l.251.118-.075.267c-.024.079-.533 1.912 1.313 2.593l.327.123-.144.315c-.033.071-.756 1.732.948 2.677h3.698v-2.921c-1.315-.16-1.872-1.212-2.015-1.956-.612-.105-1.084-.368-1.409-.795-.775-1.017-.109-1.948-.1-1.999-.001.009 0 1 .615 1.612.305.294.665.523 1.21.574l.269.024.024.274c.004.058.152 1.4 1.406 1.61l-.004-5.968c0-.924.271-1.853.598-2.712h-7.492M29.897 29.35l-.101 3.799.435.066 1.061-3.646-.538-1.121-.857.902M41.597 46.781c.033 0 .07.005.105.013.661.188.828 2.557 1.986 2.768.114.024.218.031.31.031.335 0 .535-.142.75-.395 0 0-.583-.911-1.018-1.527-.58-.805-1.029-1.777-2.107-1.777-.026 0-.057 0-.083.004-.355.018-.575.19-.575.19a2.237 2.237 0 0 0-1.21-.366c-.675 0-1.2.308-1.464.308h-.009l-2.408-.236c-.376-.036-.674-.414-.781-.561l-.041-.064c0-.065 0-.131-.005-.191-.081-1.96-1.605-2.797-2.147-2.811 0 0 .064-.373-.083-.514l-.532.641-1.741-.87 1.243 1.445-1.052 1.176c-.133.134-.116.315-.061.391l.454.4.577-.348c.029-.021.082-.028.145-.028.159 0 .399.041.614.041.235 0 .438-.05.463-.269-.072.726-.75 1.988-.305 2.981l.329.748-2.128-.305-.996 1.675c-.307.557-.356 1.159-.06 1.488l.372.464s.523-.551.641-.915l-.17-.185c-.142-.156-.136-.295-.048-.463l.625-1.031 2.512.589.133-.225c.171-.282.416-.366.685-.366.112 0 .225.014.342.032a10.85 10.85 0 0 0 2.002.214c.842 0 1.678-.149 2.123-.646.911 1.342 2.754 1.556 2.609 2.238l-.485 2.3c.321-.013.63-.035.925-.075l.461-2.393c.051-.261.1-.61.1-.61-.178-.181-.609-.559-.851-1.022-.326-.622-.15-.947-.452-1.756 0 0 .093-.188.306-.188m-9.402-3.363a.217.217 0 0 1 .027-.432.22.22 0 0 1 .208.23.221.221 0 0 1-.235.202"/>
        <path fill="#FFF" d="M28.765 48.958s.834-.342.907-.584l-.111-.277c-.079-.18-.068-.376.085-.481l.898-.619 1.501.287s-.271-.339-.245-.791l-1.433-.302-1.351.819a1.301 1.301 0 0 0-.431 1.555l.18.393M39.388 52.856c.268-.011.567-.015.891-.015 0 0 .773-2.25.817-2.321a19.05 19.05 0 0 1-1.68-.883c.23.342.787.731.677 1.033l-.705 2.186"/>
        <path fill="#FFE60D" d="M46.745 39.516H25.381v7.998c0 3.271 2.378 5.318 5.888 5.318 2.931 0 3.705.114 4.795 1.191.752-.746 1.373-1.025 2.65-1.129l.03-.124.674-2.071a379.842 379.842 0 0 0-1.139-1.291c-.437.144-.804.168-1.419.168a11.67 11.67 0 0 1-2.12-.218.977.977 0 0 0-.223-.025c-.095 0-.101.007-.127.054l-.378.622-.461-.106-2.051-.48-.281.461.042.05.249.274-.111.356c-.15.466-.64 1.011-.789 1.161l-.512.547-.467-.587-.351-.438c-.369-.412-.454-1.039-.246-1.699a.045.045 0 0 1-.021.009l-.578.238-.26-.563-.183-.398a1.938 1.938 0 0 1 .649-2.348l1.65-.927 1.571.307c.037-.15.094-.687.139-.824-.031-.003-.059-.01-.09-.01l-.905.336-.873-.599s-.342-.327-.032-.654l.845-1.275-2.142-2.675 3.291 1.345.22-.269.444-.53.504.478a.96.96 0 0 1 .265.473c.906.352 2.532 1.389 2.675 3.075l-.509.202v.013c.118.137.214.193.244.199l2.349.23c.06-.011.134-.037.217-.061.293-.099.73-.242 1.25-.242.424 0 .832.096 1.227.279.144-.054.322-.094.529-.108l.113-.003c1.257 0 1.884.935 2.385 1.682.084.129.167.251.254.371a41.167 41.167 0 0 1 1.035 1.559l.259.402-.316.368c-.244.281-.612.611-1.242.611a2.216 2.216 0 0 1-.799-.157c-.017.123-.044.27-.066.397l-.412 2.14c2.464-.604 4.028-2.455 4.028-5.105l-.004-7.998M25.38 38.872h16.617c-.83-.853-.818-1.934-.606-2.635a2.818 2.818 0 0 1-.62-.406c-.649.476-2.631 1.912-3.149 2.273l-.111.074-6.522-1.174h-.132c-.156 0-.385-.006-.636-.035a.633.633 0 0 1-1.136.226.624.624 0 0 1-.114-.476l.024-.141c-.672-.471-1.293-1.525-1.018-2.635l.027-.117.095-.068c.014-.01.126-.087.295-.182l-.474-.072a.327.327 0 0 1-.269-.37.324.324 0 0 1 .372-.269l1.129.178.103-3.956 1.679-1.768 1.049 2.196-1.107 3.806.998.156a.325.325 0 0 1 .269.371.32.32 0 0 1-.32.267c-.016 0-.034 0-.051-.002l-.811-.13c.011.024.026.039.036.064.086.178.278.304.391.36l4.97.078c.212-.204.733-.712 1.27-1.25a2.668 2.668 0 0 1-1.742-2.208c-.684-.29-1.157-.724-1.418-1.288-.319-.7-.206-1.4-.12-1.741-.663-.24-1.36-.679-2.072-1.383h-7.489c.322.859.593 1.788.593 2.712v9.545"/>
        <path fill="#231F1F" d="M46.716 57.492l-1.231-.47.34-1.266.375-1.379s-2.181 1.178-5.254 2.062c-.872.248-1.532.362-1.532.362v.939s-1.644.284-3.304.284h-.095c-1.663 0-3.304-.284-3.304-.284v-.939s-.661-.114-1.532-.362c-3.072-.884-5.251-2.062-5.251-2.062l.368 1.379.347 1.266-1.235.47-1.369.509c1.569.754 3.744 1.852 5.734 2.394l-.469 1.277s2.524 1.144 6.729 1.155v.002h.057v-.002c4.21-.011 6.732-1.155 6.732-1.155l-.471-1.277c1.99-.542 4.169-1.64 5.731-2.394l-1.366-.509zm-21.217.594l2.025-.669-.599-1.944c.893.503 2.892 1.26 4.051 1.611l-.977 2.672c-1.79-.49-3.278-1.06-4.5-1.67zm10.566 4.071c-2.352 0-5.035-.538-5.827-.819l1.201-3.235c.997.29 3.071.597 4.576.588h.095c1.504.009 3.575-.298 4.577-.588l1.199 3.235c-.79.281-3.474.819-5.821.819zm6.059-2.401l-.975-2.672c1.16-.351 3.157-1.108 4.051-1.611l-.596 1.944 2.022.669c-1.224.61-2.706 1.18-4.502 1.67zM36.06 6.99c2.505 0 4.51.826 5.617 1.707 0 0 .329-1.971 1.452-3.71l-2.018.229-1.056-2.232-2.028 1.04L36.06 2.09l-1.961 1.934-2.033-1.04-1.054 2.232-2.017-.229c1.124 1.739 1.451 3.71 1.451 3.71 1.115-.881 3.113-1.707 5.614-1.707m-5.136-.991l.559.058.242-.508.704-1.501 1.309.674.506.258.404-.398 1.412-1.394 1.415 1.394.405.398.507-.258 1.301-.674.715 1.501.237.508.56-.058.534-.065a12.689 12.689 0 0 0-.554 1.502c-1.413-.783-3.247-1.229-5.12-1.229-1.864 0-3.697.446-5.114 1.229-.131-.431-.31-.953-.555-1.502l.533.065M65.45 33.134c3.24 0 4.324-3.28 4.368-3.42l.362-1.157-1.214.038h-.005c-.427 0-4.003-.094-6.537-3.3l-.239-.297c-1.656-2.095-3.226-4.089-6.034-4.998a2.88 2.88 0 0 1 .357-.266c1.49-.974 2.357-2.16 2.575-3.534.318-2.069-1.008-3.719-1.067-3.786l-.902-1.11-.563 1.316c-.038.083-.985 2.191-2.979 2.191h-.149c-.136-.007-.267-.013-.395-.023.07-.94-.102-2.395-1.428-3.762-1.596-1.643-3.551-1.889-4.573-1.889-.546 0-.909.067-.949.071l-1.362.269.84 1.103c.659.85 1.257 2.418.548 3.237-.227.261-.693.471-1.138.684-.918.42-2.171 1.007-2.171 2.497 0 .964.752 1.973 2.115 2.83 4.034 2.525 6.522 5.16 7.597 8.068 1.663 4.473-.507 7.025-2.613 8.37l-.946.604.828.757c.111.097 1.122.985 2.618 1.112.283.018.553.034.807.034.958 0 1.774-.15 2.438-.352a6.145 6.145 0 0 1-.69.969c-1.204 1.388-2.686 2.021-4.816 2.055l-.792.013-.06.79c-.008.159-.067 1.625 1.326 2.871.213.193.471.352.742.481-.946.847-1.906 2.322-2.092 4.849-.158 2.109-.662 2.889-.669 2.897l-.874 1.33 1.581.021c2.613 0 4.613-.717 6-2.139.819-.841 1.288-1.791 1.564-2.632a4.259 4.259 0 0 0 2.759 1.008c.738 0 1.356-.156 1.425-.172l1.009-.267-.446-.937c-.032-.076-.875-1.958.032-4.643a15.21 15.21 0 0 0 .686-3.011c.636.33 1.488.602 2.588.605 2.499 0 3.602-1.858 3.651-1.936l.492-.853-.912-.374c-2.979-1.231-3.638-4.537-3.77-6.325.269.052.577.099.924.109l.153.004zm2.361 7.005s-.872 1.51-2.873 1.51h-.025c-2.402-.013-3.371-1.472-3.371-1.472s.139 1.897-.726 4.458c-1.042 3.087.009 5.291.009 5.291s-.561.152-1.207.152c-.247 0-.505-.025-.748-.088-2.006-.474-2.507-2.292-2.507-2.292s.185 6.14-7.009 6.14h-.056s.634-.858.821-3.327c.342-4.556 3.441-5.182 3.441-5.182s-1.654-.207-2.371-.846c-1.121-1.011-1.042-2.18-1.042-2.18 2.531-.035 4.19-.892 5.453-2.347 1.369-1.575 1.593-3.272 1.593-3.272s-1.361 1.228-3.992 1.228a7.51 7.51 0 0 1-.732-.036c-1.246-.1-2.106-.888-2.106-.888 2.74-1.748 4.661-4.798 2.957-9.392-1.366-3.681-4.646-6.431-7.95-8.502-1.098-.683-1.711-1.443-1.711-2.096 0-1.538 2.199-1.588 3.099-2.621 1.041-1.201.388-3.149-.513-4.322 0 0 .303-.062.782-.062.951 0 2.596.238 3.948 1.634 1.796 1.848 1.052 3.862 1.052 3.862l.48.094c.288.06.574.071.871.087l.194.003c2.609 0 3.775-2.714 3.775-2.714s2.773 3.395-1.311 6.056c-.702.454-1.012.877-.931 1.326l.064.295.291.051c2.959.799 4.457 2.831 6.285 5.141 2.778 3.513 6.706 3.627 7.191 3.627h.053s-.897 2.817-3.539 2.817c-.044 0-.082 0-.125-.003-1.214-.043-1.837-.506-1.837-.506s-.473 6.395 4.323 8.376z"/>
        <path fill="#231F1F" d="M59.757 20.356c1.208.641 1.913 1.5 2.53 2.261.607.743 1.182 1.458 2.083 1.755.32.109.66.162 1.006.162 1.351 0 2.709-.824 3.224-1.964l.518-1.143-1.253-.074c-.059-.001-1.671-.148-3.464-1.971-.738-.748-1.63-1.141-2.591-1.141-1.175 0-2.045.584-2.141.644l-1.152.807 1.24.664zm2.053-1.255c.603 0 1.306.205 1.972.889 2.088 2.109 4.03 2.227 4.03 2.227-.353.778-1.376 1.46-2.436 1.46-.245 0-.491-.037-.735-.121-1.436-.482-1.95-2.626-4.473-3.962 0 0 .704-.493 1.642-.493zM60.325 31.745v.044c-.727-5.839-4.988-10.056-9.729-12.619a30.562 30.562 0 0 0-1.236-.622c1.443.223 3.768.249 5.562-1.3 0 0-2.745 2.011-8.368.185 1.555 1.005 4.58 2.423 7.343 4.721 6.902 6.037 1.964 11.926 1.964 11.926 2.481-2.577 2.584-5.337 1.854-7.592 1.306 2.165 2.141 4.79 2.011 8.03-.19 4.64-2.753 8.653-5.449 11.877-1.296 1.565-1.585 3.487-1.585 3.487s.523-1.696 2.023-3.442c2.889-3.367 5.36-6.864 5.684-11.904.298.915 1.53 3.457 3.482 4.415 0 0-2.454-1.472-3.556-7.206M23.535 53.346c-.002-.008-.505-.788-.665-2.897-.189-2.527-1.149-4.002-2.097-4.849.274-.129.528-.288.742-.481 1.393-1.246 1.333-2.712 1.324-2.871l-.054-.791-.797-.012c-2.124-.034-3.609-.667-4.813-2.055a6.478 6.478 0 0 1-.689-.969 8.303 8.303 0 0 0 2.434.352c.258 0 .526-.016.809-.034 1.495-.127 2.508-1.014 2.62-1.112l.828-.757-.945-.604c-2.114-1.346-4.275-3.897-2.615-8.37 1.075-2.908 3.56-5.543 7.6-8.068 1.363-.857 2.109-1.866 2.109-2.83 0-1.49-1.25-2.077-2.167-2.497-.447-.213-.912-.423-1.139-.684-.71-.819-.112-2.387.547-3.237l.846-1.103-1.369-.269c-.04-.004-.399-.071-.947-.071-1.023 0-2.974.246-4.567 1.889-1.329 1.367-1.503 2.822-1.435 3.762-.128.01-.258.015-.394.023h-.146c-1.999 0-2.944-2.108-2.981-2.191l-.561-1.317-.911 1.111c-.051.067-1.381 1.717-1.058 3.786.215 1.374 1.083 2.56 2.573 3.534.162.103.275.193.357.266-2.812.909-4.381 2.903-6.036 4.998l-.239.297c-2.531 3.205-6.113 3.3-6.542 3.3l-1.221-.038.372 1.157c.043.14 1.123 3.42 4.365 3.42l.157-.004c.343-.01.65-.057.924-.109-.135 1.788-.796 5.094-3.775 6.325l-.91.374.492.853c.048.078 1.153 1.936 3.657 1.936 1.095-.003 1.945-.275 2.582-.604.097.809.296 1.848.687 3.01.907 2.685.063 4.567.031 4.643l-.448.937 1.012.267c.067.016.688.172 1.424.172a4.244 4.244 0 0 0 2.759-1.008 6.748 6.748 0 0 0 1.563 2.632c1.39 1.422 3.388 2.139 6 2.139l1.583-.021-.876-1.33zm-.765.492c-7.194 0-7.01-6.14-7.01-6.14s-.502 1.818-2.507 2.292a2.97 2.97 0 0 1-.747.087 5.168 5.168 0 0 1-1.204-.151s1.046-2.204.003-5.291c-.862-2.56-.722-4.458-.722-4.458s-.968 1.459-3.372 1.472h-.024c-2 0-2.873-1.51-2.873-1.51 4.793-1.982 4.324-8.376 4.324-8.376s-.624.463-1.839.506c-.044.003-.084.003-.126.003-2.644 0-3.54-2.817-3.54-2.817h.054c.488 0 4.413-.114 7.189-3.627 1.829-2.31 3.328-4.341 6.283-5.141l.297-.051.064-.295c.081-.449-.228-.872-.93-1.327-4.083-2.66-1.31-6.055-1.31-6.055s1.159 2.714 3.775 2.714c.064 0 .124-.003.191-.003.293-.016.584-.027.871-.087l.481-.094s-.747-2.014 1.053-3.862c1.352-1.396 2.996-1.633 3.946-1.633.482 0 .781.061.781.061-.899 1.173-1.552 3.12-.511 4.322.9 1.033 3.096 1.083 3.096 2.621 0 .653-.612 1.413-1.71 2.096-3.305 2.071-6.584 4.821-7.949 8.502-1.703 4.594.218 7.644 2.962 9.392 0 0-.863.788-2.11.888a7.5 7.5 0 0 1-.736.036c-2.628 0-3.988-1.228-3.988-1.228s.226 1.697 1.586 3.273c1.272 1.454 2.928 2.311 5.459 2.346 0 0 .08 1.169-1.039 2.18-.718.639-2.374.846-2.374.846s3.102.626 3.443 5.181c.186 2.47.815 3.328.815 3.328h-.052z"/>
        <path fill="#231F1F" d="M6.747 24.533c.347 0 .686-.051 1.007-.16.904-.299 1.478-1.012 2.085-1.756.62-.761 1.317-1.62 2.526-2.261l1.244-.663-1.155-.808c-.097-.061-.963-.643-2.137-.643-.963 0-1.857.391-2.594 1.14-1.795 1.823-3.403 1.971-3.461 1.972l-1.252.073.514 1.143c.517 1.14 1.874 1.963 3.223 1.963M8.34 19.99c.668-.684 1.371-.889 1.977-.889.933 0 1.639.493 1.639.493-2.52 1.336-3.039 3.48-4.479 3.963-.238.084-.484.12-.73.12-1.058 0-2.083-.682-2.433-1.46 0 0 1.94-.118 4.026-2.227M12.401 34.518c-.135-3.239.7-5.865 2.008-8.03-.729 2.255-.63 5.014 1.854 7.592 0 0-4.939-5.889 1.967-11.926 2.761-2.298 5.783-3.716 7.339-4.721-5.621 1.826-8.367-.184-8.367-.184 1.794 1.549 4.119 1.522 5.561 1.298-.39.19-.8.388-1.235.623-4.742 2.562-9.001 6.78-9.731 12.619v-.045c-1.101 5.735-3.553 7.207-3.553 7.207 1.951-.958 3.179-3.5 3.478-4.415.326 5.04 2.797 8.537 5.687 11.904 1.499 1.746 2.027 3.442 2.027 3.442s-.293-1.923-1.595-3.487c-2.691-3.223-5.252-7.237-5.44-11.877M34.437 22.703v1.159c.402-.486 1.176-.388 1.176-.388v1.67s-.026.821-.32 1.177h1.678c-.289-.356-.318-1.177-.318-1.177v-1.67s.777-.098 1.175.388v-1.159h-3.391M33.716 15.836c.538.424.847.494.857.501l.21.096v-1.09l-1.972-.824s.017.631.905 1.317M38.406 15.836c.89-.686.907-1.317.907-1.317l-1.972.824v1.09l.209-.096c.01-.007.32-.077.856-.501"/>
        <path fill="#231F1F" d="M41.957 11.395c0-1.654-2.798-3.143-5.887-3.143h-.018c-3.088 0-5.886 1.489-5.886 3.143l.061.407 1.233 7.046-1.238.716-3.205 1.863h.011s-.721.368-1.055.595c-1.221.843-1.48 2.075-.771 2.583.174-1.004.972-2.052 2.464-2.052 1.075 0 1.895.552 2.556 1.38.17.208.332.432.482.672.186.303.372.569.557.825h-8.256c.607 1.214 1.183 2.5 1.183 3.897v18.186c0 4.403 3.401 6.503 7.081 6.503 2.844 0 3.227-.129 4.796 1.427 1.561-1.556 1.945-1.427 4.791-1.427 3.681 0 7.078-2.1 7.078-6.503V29.327c0-1.397.576-2.683 1.186-3.897h-8.259a13.4 13.4 0 0 0 .556-.825c.152-.24.313-.464.48-.672.667-.831 1.485-1.38 2.56-1.38 1.491 0 2.287 1.048 2.465 2.052.708-.508.452-1.74-.775-2.583-.329-.227-1.051-.595-1.051-.595h.011l-3.21-1.863-1.234-.716 1.234-7.046.06-.407zm-10.58.818l4.336 1.464v6.781l-3.192-1.674-1.144-6.571zm.899 14.402c.712.704 1.409 1.142 2.072 1.383-.086.34-.199 1.042.12 1.741.261.564.734.999 1.418 1.288a2.668 2.668 0 0 0 1.742 2.207c-.537.539-1.059 1.047-1.27 1.252l-4.97-.079c-.112-.056-.305-.182-.391-.361-.009-.025-.026-.038-.036-.063l.811.131a.435.435 0 0 0 .051.002.319.319 0 0 0 .32-.268.326.326 0 0 0-.269-.371l-.997-.157 1.106-3.804-1.048-2.197-1.68 1.768-.103 3.956-1.129-.178a.323.323 0 1 0-.103.639l.474.072a3.915 3.915 0 0 0-.295.182l-.095.067-.027.118c-.274 1.111.347 2.164 1.018 2.636l-.024.14a.618.618 0 0 0 .115.476.621.621 0 0 0 .52.267c.291 0 .545-.2.616-.493.25.03.478.036.635.036h.133l6.521 1.172.11-.073c.519-.361 2.501-1.797 3.15-2.274.179.153.378.292.619.407-.21.702-.223 1.782.608 2.634H25.38v-9.544c0-.924-.271-1.854-.593-2.712h7.489zm8.057 8.731c-.658.484-2.355 1.717-2.972 2.145l-5.924-1.059.04-.158c.078-.306.158-.724.162-1.215l4.98.079.095-.096c.076-.075 1.654-1.593 2.458-2.465.192.239.43.466.745.666-.108.581-.062 1.407.416 2.103zm-9.921-1.02c.141.292.393.487.57.598a6.933 6.933 0 0 1-.105 1.075 2.664 2.664 0 0 1-.062.238c-.012.049-.027.089-.037.121-.262 0-.775-.032-1.197-.185-.465-.171-1.159-1.02-.999-1.958.201-.123.668-.383 1.105-.383.335 0 .565.157.725.494zm-.616-1.177l.101-3.799.856-.902.538 1.121-1.061 3.646-.434-.066zM40.279 52.84c-.324 0-.623.005-.891.015l.705-2.185c.11-.302-.447-.691-.677-1.033.347.218 1.247.693 1.68.883-.043.071-.817 2.32-.817 2.32zm2.215-2.482l-.461 2.392a9.595 9.595 0 0 1-.925.075l.485-2.299c.145-.683-1.698-.896-2.609-2.24-.444.498-1.281.647-2.123.647a10.95 10.95 0 0 1-2.002-.213 2.156 2.156 0 0 0-.342-.032c-.269 0-.514.083-.685.366l-.133.225-2.512-.589-.625 1.03c-.088.167-.095.307.048.464l.169.184c-.117.364-.639.915-.639.915l-.373-.464c-.296-.329-.248-.932.06-1.489l.997-1.674 2.128.306-.33-.75c-.445-.992.232-2.253.305-2.98-.025.22-.228.269-.463.269-.215 0-.455-.041-.614-.041-.063 0-.117.006-.145.028l-.577.348-.454-.4c-.055-.077-.072-.257.061-.392l1.052-1.175-1.243-1.446 1.741.871.532-.642c.146.143.082.516.082.516.543.012 2.068.851 2.149 2.81.004.059.004.126.004.191 0 0 .014.024.041.064.107.148.405.525.782.56l2.406.238h.01c.264 0 .789-.309 1.463-.309.368 0 .776.093 1.211.366 0 0 .22-.172.574-.19.027-.003.058-.003.084-.003 1.078 0 1.527.971 2.107 1.777a48.072 48.072 0 0 1 1.018 1.526c-.215.254-.415.395-.75.395-.092 0-.196-.007-.311-.03-1.157-.212-1.324-2.581-1.985-2.768a.384.384 0 0 0-.105-.014c-.213 0-.305.189-.305.189.301.807.125 1.133.45 1.756.243.461.674.841.852 1.02 0 0-.049.35-.1.612zm-12.933-2.261l.111.277c-.074.242-.907.583-.907.583l-.18-.392a1.301 1.301 0 0 1 .431-1.555l1.351-.819 1.433.303c-.026.452.245.791.245.791l-1.501-.288-.899.618c-.152.106-.163.301-.084.482zm13.159 4.522l.413-2.141c.022-.126.048-.273.066-.396.117.049.24.088.373.113.155.029.296.044.426.044.63 0 .998-.33 1.241-.611l.317-.368-.259-.402c-.023-.04-.596-.942-1.036-1.558a8.987 8.987 0 0 1-.253-.373c-.501-.746-1.128-1.68-2.385-1.68l-.113.002a1.841 1.841 0 0 0-.529.108 2.875 2.875 0 0 0-1.227-.279c-.521 0-.957.143-1.249.241-.084.025-.158.051-.217.062l-2.351-.23c-.03-.006-.125-.062-.242-.2v-.011l.509-.203c-.144-1.686-1.77-2.723-2.677-3.074a.954.954 0 0 0-.263-.475l-.506-.477-.444.53-.218.27-3.292-1.346 2.142 2.676-.845 1.274c-.309.326.032.654.032.654l.873.599.905-.336c.031 0 .059.007.089.011-.044.137-.1.673-.138.823l-1.571-.307-1.65.927a1.938 1.938 0 0 0-.649 2.348l.183.399.26.562.578-.238a.058.058 0 0 0 .021-.009c-.208.66-.123 1.288.246 1.698l.351.439.467.587.512-.548c.15-.149.639-.694.789-1.16l.111-.356-.249-.274-.042-.049.282-.462 2.049.481.462.105.245-.403.134-.219c.025-.047.031-.054.126-.054.073 0 .145.007.223.025.774.145 1.488.218 2.121.218.614 0 .981-.024 1.418-.169 0 0 1.101 1.245 1.139 1.292l-.674 2.071-.03.125c-1.277.103-1.898.381-2.649 1.128-1.091-1.077-1.864-1.191-4.796-1.191-3.51 0-5.889-2.047-5.889-5.319v-7.997h21.364l.005 7.997c0 2.652-1.565 4.503-4.029 5.106zm4.619-26.004c-.327.858-.597 1.788-.597 2.712l.002 5.968c-1.253-.21-1.4-1.552-1.405-1.61l-.023-.274-.27-.023c-.545-.053-.906-.281-1.21-.576-.614-.611-.616-1.602-.614-1.611-.009.051-.677.982.098 1.998.326.428.798.692 1.409.795.144.745.701 1.797 2.015 1.957v2.92h-3.696c-1.705-.944-.982-2.605-.949-2.676l.144-.315-.326-.123c-1.846-.681-1.338-2.514-1.313-2.593l.074-.267-.251-.119c-1.524-.703-1.318-2.596-1.298-2.676-.469.379-.638 1.15-.315 1.906-.174.2-.409.44-.666.704a2.062 2.062 0 0 1-1.628-1.91l-.003-.222-.208-.08c-.616-.227-1.039-.568-1.248-1.026-.234-.506-.151-1.037-.087-1.293.181.041.361.069.532.083.178.019.36.03.543.03h.025c.183 0 .363-.011.542-.03.984-.097 2.084-.517 3.232-1.649h7.491zm-5.759-6.032l1.46.844h.02l.367.213a4.313 4.313 0 0 0-1.983 1.176c-.02.017-.037.036-.058.057a7.234 7.234 0 0 0-.357.41l-.068.087a7.236 7.236 0 0 0-.321.447 10.274 10.274 0 0 0-.406.648c-1.04 1.783-2.699 2.848-4.174 2.851-1.474-.003-3.133-1.068-4.171-2.851-.113-.193-.228-.38-.348-.561-.024-.034-.045-.07-.067-.099a10.781 10.781 0 0 0-.308-.429c-.027-.038-.052-.066-.078-.099a8.495 8.495 0 0 0-.346-.4c-.025-.02-.042-.044-.063-.065a4.316 4.316 0 0 0-1.985-1.172l.371-.213h.016l1.463-.844 1.5-.855 4.008 2.171.008-.008.012.008 4.007-2.171 1.501.855zm-1.978-1.799l-3.193 1.674v-6.781l4.333-1.464-1.14 6.571zm-3.542-5.852l-4.75-1.867c.404-.953 2.267-1.762 4.75-1.765 2.487.003 4.35.812 4.751 1.765l-4.751 1.867z"/>
        <g fill="#231F1F">
            <path d="M104.45 32.321c.203-.324.41-.644.629-.963h.127v7.195h3.21V26.338h-3.21l-3.596 5.571c-.202.318-.405.625-.605.922-.2.302-.404.619-.602.95h-.128v-7.443h-3.21v12.215h3.21a71.199 71.199 0 0 0 1.773-2.61c.578-.891 1.162-1.77 1.748-2.637.234-.33.454-.661.654-.985M114.658 33.483h4.778v5.07h3.211V26.338h-3.211v4.647h-4.778v-4.647h-3.212v12.215h3.212v-5.07M135.907 34.634c0-1.252-.426-2.221-1.275-2.914-.854-.689-1.996-1.036-3.427-1.036h-2.315v-4.346h-3.212v12.216h5.667c1.386 0 2.492-.315 3.32-.937.83-.626 1.242-1.619 1.242-2.983m-3.686 1.122c-.32.233-.74.35-1.258.35h-2.073v-2.999h2.047c.537 0 .964.127 1.284.376.316.249.474.625.474 1.125 0 .532-.158.915-.474 1.148M177.223 36.953a6.002 6.002 0 0 0 1.337-1.972c.326-.766.492-1.641.492-2.625 0-.914-.16-1.747-.48-2.496a5.812 5.812 0 0 0-1.322-1.936 6.09 6.09 0 0 0-2.014-1.273 8.126 8.126 0 0 0-2.53-.538v-4.594l-3.016 1.175v3.419a7.709 7.709 0 0 0-2.514.562 6.703 6.703 0 0 0-2.037 1.3 5.917 5.917 0 0 0-1.35 1.923c-.33.741-.493 1.562-.493 2.458 0 .984.152 1.862.455 2.638.302.773.737 1.44 1.302 1.996a5.89 5.89 0 0 0 2.022 1.302c.786.306 1.656.485 2.615.534v5.176l3.04-1.176v-4.023a7.66 7.66 0 0 0 2.493-.549 6.15 6.15 0 0 0 2-1.301zm-7.533-.547a3.79 3.79 0 0 1-1.286-.325 3.207 3.207 0 0 1-1.063-.776 3.686 3.686 0 0 1-.72-1.211c-.178-.474-.267-1.026-.267-1.662 0-1.063.292-1.959.873-2.685.582-.724 1.404-1.127 2.463-1.212v7.871zm4.256-.3c-.394.183-.807.29-1.24.324v-7.895c1.052.085 1.863.488 2.433 1.212.568.726.854 1.622.854 2.685 0 .636-.093 1.194-.278 1.675a3.78 3.78 0 0 1-.728 1.224c-.3.332-.648.592-1.041.775zM196.004 34.982c.327-.768.49-1.641.49-2.626 0-.914-.16-1.747-.479-2.496a5.793 5.793 0 0 0-1.322-1.936 6.1 6.1 0 0 0-2.015-1.273 8.08 8.08 0 0 0-2.53-.537v-4.595l-3.012 1.175v3.42a7.664 7.664 0 0 0-2.517.562 6.637 6.637 0 0 0-2.035 1.3 5.888 5.888 0 0 0-1.352 1.922c-.33.741-.492 1.562-.492 2.458 0 .985.15 1.863.456 2.638a5.651 5.651 0 0 0 1.3 1.997c.565.56 1.239.993 2.024 1.301.782.305 1.655.485 2.616.535v5.174l3.037-1.174v-4.023c.89-.05 1.72-.236 2.493-.549a6.188 6.188 0 0 0 2.001-1.302 5.975 5.975 0 0 0 1.337-1.971zm-8.868 1.424a3.84 3.84 0 0 1-1.29-.325 3.23 3.23 0 0 1-1.06-.776 3.658 3.658 0 0 1-.723-1.212c-.177-.474-.264-1.026-.264-1.66 0-1.065.29-1.96.871-2.687.583-.723 1.403-1.126 2.466-1.21v7.87zm6.022-2.298c-.185.483-.427.89-.727 1.223-.3.332-.65.592-1.042.775a3.565 3.565 0 0 1-1.242.324v-7.894c1.053.084 1.864.487 2.434 1.21.57.727.852 1.622.852 2.687 0 .634-.09 1.192-.275 1.675zM84.053 23.99h4.675v14.577h3.34V23.99h4.517v-2.844H84.053v2.844M149.27 26.402h-3.66l-4.303 5.19v-5.254h-3.186v12.229h3.186V32.62l4.2 5.947h3.788l-4.725-6.544 4.7-5.621M159.98 27.825a5.11 5.11 0 0 0-1.855-1.262 6.272 6.272 0 0 0-2.372-.437c-.857 0-1.647.145-2.37.437a5.327 5.327 0 0 0-1.869 1.249c-.52.541-.924 1.209-1.21 1.999-.285.79-.429 1.686-.429 2.687 0 .965.14 1.839.417 2.622a5.714 5.714 0 0 0 1.173 1.998 5.192 5.192 0 0 0 1.83 1.276c.714.298 1.517.447 2.409.447a6.31 6.31 0 0 0 2.372-.437 5.261 5.261 0 0 0 1.867-1.26c.52-.551.93-1.222 1.221-2.011.296-.791.443-1.688.443-2.688 0-.964-.143-1.84-.43-2.621-.285-.783-.684-1.448-1.198-1.999m-1.762 6.12a4.124 4.124 0 0 1-.506 1.188 2.45 2.45 0 0 1-.827.798c-.33.192-.705.287-1.131.287-.863 0-1.523-.33-1.982-.985-.457-.657-.686-1.586-.686-2.788 0-1.063.222-1.947.66-2.646.444-.7 1.085-1.05 1.931-1.05.898 0 1.576.348 2.034 1.038.458.691.685 1.595.685 2.711 0 .515-.059.997-.178 1.447"/>
        </g>
    </g>
</svg>
